<svg width="645" height="645" viewBox="0 0 645 645" fill="none" xmlns="http://www.w3.org/2000/svg">
<path d="M134.434 304.602H110.411V348.726H134.434V304.602Z" stroke="#FF4600" stroke-miterlimit="10" stroke-linecap="round"/>
<path d="M114.368 339.646H109.068C107.837 339.646 106.656 338.848 105.786 337.427C104.915 336.007 104.426 334.08 104.426 332.071V322.534C104.426 320.526 104.915 318.599 105.786 317.178C106.656 315.758 107.837 314.96 109.068 314.96H114.326" stroke="#FF4600" stroke-miterlimit="10" stroke-linecap="round"/>
<path d="M271.539 146.586H260.939V288.084H271.539V146.586Z" stroke="black" stroke-miterlimit="10" stroke-linecap="round"/>
<path d="M164.623 275.125V348.726" stroke="black" stroke-miterlimit="10" stroke-linecap="round"/>
<path d="M171.727 275.125V348.726" stroke="black" stroke-miterlimit="10" stroke-linecap="round"/>
<path d="M178.845 275.125V348.726" stroke="black" stroke-miterlimit="10" stroke-linecap="round"/>
<path opacity="0.3" d="M211.145 337.501V256.873C211.145 253.623 210.354 250.507 208.946 248.21C207.538 245.912 205.628 244.621 203.636 244.621C201.645 244.621 199.735 245.912 198.327 248.21C196.918 250.507 196.127 253.623 196.127 256.873V337.501H186.591V348.725H253.584V337.501H211.145Z" fill="#FF4600"/>
<path d="M164.624 278.045C165.612 278.045 166.414 276.737 166.414 275.124C166.414 273.512 165.612 272.204 164.624 272.204C163.635 272.204 162.834 273.512 162.834 275.124C162.834 276.737 163.635 278.045 164.624 278.045Z" stroke="black" stroke-miterlimit="10" stroke-linecap="round"/>
<path d="M171.727 278.045C172.716 278.045 173.517 276.737 173.517 275.124C173.517 273.512 172.716 272.204 171.727 272.204C170.739 272.204 169.938 273.512 169.938 275.124C169.938 276.737 170.739 278.045 171.727 278.045Z" stroke="black" stroke-miterlimit="10" stroke-linecap="round"/>
<path d="M178.845 278.045C179.833 278.045 180.634 276.737 180.634 275.124C180.634 273.512 179.833 272.204 178.845 272.204C177.856 272.204 177.055 273.512 177.055 275.124C177.055 276.737 177.856 278.045 178.845 278.045Z" stroke="black" stroke-miterlimit="10" stroke-linecap="round"/>
<path d="M158.01 193.174H180.97C180.97 193.174 180.285 225.434 171.42 238.005H147.788C147.788 238.005 157.772 211.745 158.01 193.174Z" fill="#FF4600"/>
<path d="M160.96 205.79H175.251" stroke="#F9F3EE" stroke-linecap="round" stroke-linejoin="round"/>
<path d="M158.736 214.779H173.027" stroke="#F9F3EE" stroke-linecap="round" stroke-linejoin="round"/>
<path d="M260.939 288.084H142.67V146.586H260.939" stroke="black" stroke-miterlimit="10" stroke-linecap="round"/>
<path d="M400.253 292.646C407.944 294.928 415.788 297.871 423.493 301.521C425.496 302.469 427.348 304.122 428.917 306.365C430.486 308.608 431.734 311.385 432.573 314.502C433.411 317.618 433.821 320.996 433.772 324.398C433.723 327.801 433.216 331.144 432.288 334.192L425.409 357.281" stroke="#FF4600" stroke-miterlimit="10" stroke-linecap="round"/>
<path d="M385.78 192.444C380.075 195.957 375.293 198.604 370.105 193.356C364.666 187.881 363.855 180.945 364.694 171.021C364.985 167.822 365.665 164.75 366.693 161.986L377.796 131.231" stroke="black" stroke-miterlimit="10" stroke-linecap="round"/>
<path d="M368.302 199.402C368.242 199.57 368.191 199.746 368.148 199.927C366.625 206.221 363.787 211.433 360.136 214.643" stroke="black" stroke-miterlimit="10" stroke-linecap="round"/>
<path d="M373.839 169.469L372.441 167.826C372.298 167.653 372.177 167.435 372.087 167.185C371.998 166.935 371.94 166.657 371.918 166.369C371.895 166.081 371.909 165.789 371.958 165.51C372.007 165.231 372.09 164.971 372.203 164.746L372.818 163.491L376.566 152.859" stroke="black" stroke-miterlimit="10" stroke-linecap="round"/>
<path d="M375.713 180.9C377.796 181.151 382.061 179.371 383.935 174.625C384.016 174.425 384.059 174.191 384.06 173.951C384.06 173.711 384.018 173.476 383.938 173.275C383.857 173.074 383.743 172.915 383.608 172.819C383.474 172.722 383.325 172.692 383.18 172.732L376.062 174.397" stroke="black" stroke-miterlimit="10" stroke-linecap="round"/>
<path d="M307.182 465.424L358.178 474.778C366.447 476.295 374.804 473.738 382.174 467.435C389.543 461.132 395.587 451.373 399.526 439.415L417.998 383.29L425.269 358.559" stroke="#FF4600" stroke-linecap="round" stroke-linejoin="round"/>
<path d="M388.018 152.221L387.333 150.578C387.089 150.033 386.78 149.575 386.424 149.232L385.711 148.57C385.6 148.453 385.515 148.282 385.467 148.081C385.42 147.881 385.412 147.661 385.445 147.452C385.484 147.208 385.582 146.999 385.715 146.871C385.849 146.742 386.008 146.706 386.158 146.768L386.787 147.019C387.258 147.206 387.695 147.572 388.062 148.087C388.429 148.603 388.716 149.253 388.899 149.985L389.192 151.171C389.254 151.408 389.256 151.674 389.198 151.913C389.141 152.151 389.028 152.344 388.885 152.449H388.801C388.674 152.564 388.527 152.604 388.384 152.562C388.242 152.521 388.112 152.4 388.018 152.221Z" fill="black" stroke="black" stroke-miterlimit="10"/>
<path d="M377.321 142.662L376.23 141.772C375.857 141.484 375.453 141.313 375.041 141.27H374.216C374.083 141.251 373.957 141.164 373.857 141.02C373.756 140.877 373.686 140.685 373.657 140.472C373.628 140.221 373.66 139.962 373.746 139.749C373.832 139.536 373.966 139.386 374.118 139.331L374.734 139.08C375.206 138.899 375.697 138.902 376.168 139.088C376.64 139.274 377.078 139.639 377.446 140.152L378.048 140.997C378.165 141.16 378.239 141.392 378.255 141.642C378.27 141.893 378.226 142.144 378.132 142.343H378.062C377.98 142.528 377.862 142.662 377.726 142.72C377.591 142.778 377.448 142.758 377.321 142.662Z" fill="black" stroke="black" stroke-miterlimit="10"/>
<path d="M382.396 156.739C382.343 156.866 382.301 157.004 382.271 157.149C382.303 157.008 382.351 156.877 382.41 156.761V156.921H382.494C382.431 156.813 382.387 156.679 382.368 156.533C382.36 156.662 382.36 156.792 382.368 156.921C382.377 156.853 382.377 156.783 382.368 156.716C382.362 156.753 382.362 156.793 382.368 156.83C382.298 156.967 382.368 157.195 382.368 157.263H382.466C382.489 157.337 382.517 157.406 382.55 157.469C382.544 157.49 382.541 157.513 382.541 157.537C382.541 157.561 382.544 157.584 382.55 157.605C382.55 157.605 382.55 157.605 382.62 157.765H382.55L382.634 157.925C382.67 157.99 382.712 158.045 382.76 158.085C382.564 157.902 382.592 158.085 382.676 158.085C382.76 158.085 382.9 158.313 382.9 158.267H382.774H382.844C382.852 158.192 382.852 158.114 382.844 158.039H382.942C382.882 157.958 382.842 157.845 382.83 157.72C382.781 157.783 382.746 157.871 382.732 157.971H382.648C382.716 157.945 382.779 157.89 382.83 157.811C382.889 157.905 382.961 157.975 383.04 158.016C383.002 158.126 382.969 158.24 382.942 158.358H383.04C383.04 158.358 383.04 158.564 383.11 158.358C383.223 158.416 383.345 158.416 383.459 158.358C383.662 158.384 383.863 158.278 384.018 158.062H384.088H384.2V157.925C384.203 157.872 384.203 157.818 384.2 157.765C384.191 157.785 384.186 157.809 384.186 157.834C384.186 157.858 384.191 157.882 384.2 157.902V157.788C384.2 157.788 384.2 157.788 384.2 157.674C384.2 157.674 384.2 157.674 384.2 157.537V157.286C384.198 157.506 384.169 157.723 384.116 157.925C384.269 157.446 384.373 156.93 384.424 156.396V156.168L384.536 155.78V155.621V155.461V155.278C384.536 155.278 384.662 155.096 384.662 154.982C384.671 154.899 384.671 154.814 384.662 154.731C384.668 154.694 384.668 154.654 384.662 154.617C384.664 154.548 384.664 154.48 384.662 154.411C384.662 154.411 384.662 154.411 384.662 154.275C384.654 154.214 384.654 154.152 384.662 154.092C384.675 154.029 384.699 153.973 384.732 153.932C384.738 153.841 384.738 153.749 384.732 153.658V153.522C384.732 153.339 384.732 153.202 384.662 153.293L384.578 153.111L384.494 152.951C384.494 152.814 384.494 152.792 384.382 152.951C384.338 152.924 384.299 152.876 384.27 152.814H384.158C384.09 152.783 384.017 152.783 383.948 152.814C383.948 152.814 383.948 152.814 384.032 152.951H383.865H383.697H383.851C383.783 152.907 383.708 152.907 383.641 152.951C383.607 152.936 383.572 152.942 383.541 152.967C383.51 152.992 383.486 153.035 383.473 153.088C383.473 152.906 383.361 153.088 383.347 153.271H383.263C383.224 153.32 383.19 153.382 383.165 153.453C383.165 153.453 383.096 153.59 383.096 153.704L383.012 153.932C382.975 154.08 382.947 154.233 382.928 154.389C382.928 154.389 382.928 154.389 382.928 154.548C382.906 154.615 382.894 154.689 382.894 154.765C382.894 154.841 382.906 154.915 382.928 154.982V155.096C382.936 155.059 382.936 155.018 382.928 154.982C382.839 155.237 382.764 155.504 382.704 155.78C382.682 155.898 382.654 156.013 382.62 156.123C382.579 156.193 382.55 156.279 382.536 156.373C382.34 156.624 382.354 156.67 382.396 156.739ZM382.718 157.948C382.62 157.948 382.718 157.742 382.718 157.742C382.711 157.795 382.711 157.849 382.718 157.902C382.718 157.902 382.69 157.948 382.718 157.948ZM382.62 157.491C382.635 157.574 382.658 157.651 382.69 157.72C382.639 157.701 382.594 157.652 382.564 157.583L382.62 157.491ZM382.676 156.853C382.676 156.853 382.676 156.853 382.746 156.853H382.676Z" fill="black"/>
<path d="M382.411 157.035C382.411 157.035 382.411 156.875 382.411 156.898V157.263C382.466 157.149 382.384 157.126 382.411 157.035Z" fill="black"/>
<path d="M382.536 158.221L382.396 157.947C382.425 158.024 382.47 158.081 382.522 158.107C382.522 158.107 382.55 158.175 382.536 158.221Z" fill="black"/>
<path d="M384.256 152.495C384.191 152.483 384.126 152.483 384.061 152.495C384.116 152.29 384.2 152.381 384.256 152.495Z" fill="black"/>
<path d="M372.511 149.848C372.463 149.98 372.421 150.117 372.385 150.259C372.423 150.122 372.47 149.992 372.525 149.871V150.03H372.65C372.587 149.923 372.544 149.788 372.525 149.642C372.517 149.771 372.517 149.901 372.525 150.03C372.533 149.963 372.533 149.893 372.525 149.825V149.939C372.455 149.939 372.525 150.304 372.525 150.373H372.636C372.659 150.446 372.688 150.515 372.72 150.578C372.714 150.623 372.714 150.67 372.72 150.715C372.735 150.771 372.759 150.819 372.79 150.852H372.72C372.72 150.852 372.72 150.852 372.804 150.989C372.841 151.067 372.889 151.129 372.944 151.171C372.748 150.989 372.776 151.057 372.86 151.171C372.944 151.285 373.098 151.399 373.084 151.354H372.958H373.028C373.044 151.28 373.044 151.199 373.028 151.125H373.14C373.081 151.04 373.037 150.929 373.014 150.806C372.965 150.87 372.931 150.958 372.916 151.057H372.846L373.028 150.897C373.084 150.993 373.15 151.071 373.224 151.125C373.224 151.125 373.224 151.376 373.126 151.468H373.21C373.21 151.468 373.21 151.468 373.14 151.468C373.259 151.525 373.385 151.525 373.503 151.468C373.604 151.482 373.705 151.463 373.802 151.412C373.898 151.361 373.986 151.279 374.063 151.171H374.175C374.168 151.126 374.168 151.079 374.175 151.034C374.182 150.982 374.182 150.927 374.175 150.874C374.166 150.894 374.161 150.918 374.161 150.943C374.161 150.968 374.166 150.992 374.175 151.011C374.175 151.011 374.175 151.011 374.175 150.852V150.578C374.16 150.802 374.132 151.024 374.091 151.24C374.231 150.752 374.334 150.239 374.398 149.711V149.483L374.496 149.095V148.912V148.753V148.57C374.496 148.57 374.608 148.388 374.608 148.274C374.624 148.192 374.624 148.104 374.608 148.023V147.84C374.614 147.795 374.614 147.748 374.608 147.703C374.6 147.643 374.6 147.581 374.608 147.521C374.626 147.455 374.65 147.394 374.678 147.338C374.685 147.247 374.685 147.155 374.678 147.064V146.928C374.678 146.745 374.678 146.608 374.678 146.699L374.594 146.517C374.569 146.453 374.536 146.398 374.496 146.357C374.496 146.22 374.496 146.197 374.398 146.243L374.272 146.106H374.748H374.65C374.577 146.075 374.5 146.075 374.426 146.106L374.524 146.243H374.37H374.189H374.342C374.31 146.215 374.274 146.2 374.238 146.2C374.201 146.2 374.165 146.215 374.133 146.243C374.063 146.243 374.007 146.243 373.979 146.38C373.951 146.517 373.867 146.38 373.839 146.54C373.811 146.699 373.839 146.54 373.769 146.654L373.657 146.859C373.657 146.859 373.657 146.996 373.587 147.11L373.517 147.338C373.476 147.485 373.444 147.638 373.42 147.794V147.954C373.395 148.019 373.382 148.094 373.382 148.171C373.382 148.248 373.395 148.323 373.42 148.388V148.502C373.319 148.755 373.244 149.032 373.196 149.323L373.112 149.665C373.088 149.695 373.068 149.733 373.053 149.776C373.039 149.819 373.03 149.867 373.028 149.916C373.028 149.916 372.483 149.779 372.511 149.848ZM372.832 151.057C372.734 151.057 372.832 150.852 372.832 150.852C372.83 150.905 372.83 150.958 372.832 151.011C372.832 151.011 372.818 151.034 372.832 151.057ZM372.748 150.601C372.763 150.683 372.787 150.76 372.818 150.829C372.769 150.803 372.726 150.756 372.692 150.692L372.748 150.601ZM372.79 149.962C372.817 149.944 372.847 149.944 372.874 149.962H372.79Z" fill="black"/>
<path d="M373.433 150.761C373.433 150.761 373.433 150.601 373.433 150.624V150.989C373.433 150.989 373.351 150.875 373.433 150.761Z" fill="black"/>
<path d="M373.56 151.948L373.42 151.674C373.42 151.674 373.49 151.834 373.532 151.834C373.574 151.834 373.574 151.925 373.56 151.948Z" fill="black"/>
<path d="M375.28 146.22H375.084C375.126 146.015 375.21 146.015 375.28 146.22Z" fill="black"/>
<path d="M388.927 220.46C387.743 219.013 386.87 216.989 386.435 214.681C386.001 212.372 386.026 209.899 386.508 207.615C387.935 200.955 390.235 194.882 393.248 189.82C394.8 187.219 396.254 185.257 397.149 185.462L398.282 185.622C401.526 187.903 402.099 184.55 402.099 184.55C402.099 184.55 403.414 180.283 399.233 177.135" stroke="black" stroke-miterlimit="10" stroke-linecap="round"/>
<path opacity="0.3" d="M412.754 154.525C412.041 141.429 408.979 140.836 408.979 140.836C408.979 140.836 411.412 123.725 396.31 111.815C381.208 99.906 371.672 110.424 371.14 122.972C371 126.075 372.65 130.501 373.867 132.919C372.884 134.865 372.161 137.124 371.744 139.552C371.327 141.98 371.227 144.523 371.448 147.019L375.489 135.611C382.229 144.965 397.764 147.315 397.764 147.315C397.764 147.315 390.059 159.932 394.967 172.549L393.331 177.454C393.104 178.13 393.019 178.908 393.088 179.671C393.157 180.434 393.376 181.139 393.714 181.678C394.051 182.218 394.487 182.564 394.956 182.662C395.424 182.76 395.9 182.606 396.31 182.222C400.183 178.617 413.369 165.681 412.754 154.525Z" fill="#FF4600"/>
<path d="M301.645 348.383L329.765 249.8C331.501 242.509 334.225 235.953 337.734 230.623C341.243 225.293 345.445 221.327 350.026 219.023L358.668 214.665C358.668 214.665 351.802 225.913 368.022 229.905C383.921 233.83 391.234 220.939 391.234 220.939C393.631 222.977 396.192 224.451 398.841 225.32C404.784 227.872 409.935 233.928 413.3 242.317C415.73 248.363 417.023 255.437 417.019 262.668V327.508C417.019 330.252 416.688 332.97 416.044 335.505C415.401 338.041 414.457 340.344 413.268 342.285C412.078 344.226 410.666 345.765 409.112 346.815C407.558 347.865 405.893 348.406 404.211 348.406H301.645" fill="#FF4600"/>
<path d="M392.772 148.297H393.388C396.947 148.023 400.431 146.522 403.609 143.894" stroke="#F9F3EE" stroke-linecap="round" stroke-linejoin="round"/>
<path d="M589.124 348.726H66.2106C65.3225 348.726 64.6025 349.9 64.6025 351.349V365.768C64.6025 367.217 65.3225 368.392 66.2106 368.392H589.124C590.012 368.392 590.732 367.217 590.732 365.768V351.349C590.732 349.9 590.012 348.726 589.124 348.726Z" stroke="black" stroke-miterlimit="10" stroke-linecap="round"/>
<path d="M33.1123 641.19L104.888 368.415" stroke="black" stroke-miterlimit="10" stroke-linecap="round"/>
<path d="M140.32 368.415L43.4453 641.19" stroke="black" stroke-miterlimit="10" stroke-linecap="round"/>
<path d="M623.186 641.19L552.333 368.415H516.914L613.775 641.19" stroke="black" stroke-miterlimit="10" stroke-linecap="round"/>
<path d="M540.826 434.67V636.308" stroke="black" stroke-miterlimit="10" stroke-linecap="round"/>
<path d="M590.731 631.402H490.934V641.19H590.731V631.402Z" fill="black"/>
<path opacity="0.3" d="M505.532 278.547H499.743C478.768 278.547 469.582 322.169 486.319 342.771L487.242 343.889H513.391L513.964 343.478C534.533 328.762 527.989 278.547 505.532 278.547Z" fill="#FF4600"/>
<path d="M492.039 263.717C501.461 263.717 509.098 263.472 509.098 263.17C509.098 262.867 501.461 262.622 492.039 262.622C482.617 262.622 474.979 262.867 474.979 263.17C474.979 263.472 482.617 263.717 492.039 263.717Z" stroke="black" stroke-linecap="round" stroke-linejoin="round"/>
<path d="M474.993 264.447L473.203 266.136C469.057 270.046 465.615 275.668 463.222 282.436C460.829 289.203 459.569 296.879 459.569 304.693C459.569 312.731 460.902 320.619 463.428 327.52C465.954 334.421 469.578 340.078 473.916 343.889L479.034 348.452" stroke="black" stroke-linecap="round" stroke-linejoin="round"/>
<path d="M509.224 264.447L511.014 266.136C515.159 270.046 518.602 275.668 520.995 282.436C523.388 289.203 524.647 296.879 524.647 304.693C524.648 312.734 523.313 320.625 520.784 327.526C518.255 334.428 514.628 340.083 510.286 343.889L505.183 348.452" stroke="black" stroke-linecap="round" stroke-linejoin="round"/>
<path d="M522.396 286.988H461.821" stroke="black" stroke-linecap="round" stroke-linejoin="round"/>
<path d="M496.121 316.557C496.298 315.938 496.584 315.42 496.943 315.07C497.302 314.72 497.717 314.554 498.135 314.595C498.654 314.599 499.164 314.809 499.622 315.207C500.08 315.604 500.472 316.177 500.764 316.876C502.232 320.481 504.078 322.922 510.72 318.314C512.019 317.294 513.275 316.135 514.481 314.846C514.817 314.184 514.481 314.07 514.481 314.07C514.624 313.53 514.651 312.928 514.557 312.36C514.463 311.792 514.254 311.293 513.964 310.945C513.069 309.598 508.51 304.328 504.679 303.644C503.724 303.492 502.761 303.743 501.882 304.374C501.026 304.935 500.213 305.662 499.463 306.541C498.881 307.42 498.238 308.186 497.548 308.823C497.274 309.054 496.965 309.153 496.658 309.109C496.351 309.064 496.058 308.878 495.814 308.572C494.206 306.587 492.612 302.845 484.711 304.785C484.711 304.785 485.257 313.135 493.101 313.135C493.101 313.135 488.808 310.329 484.711 322.261C484.655 322.124 493.297 326.824 496.121 316.557Z" fill="#FF4600"/>
<path d="M503.253 315.097C501.36 315.257 499.516 316.14 497.87 317.675C496.122 319.956 495.926 323.561 497.87 324.245C499.813 324.93 502.792 322.146 504.54 319.158" fill="#FF4600"/>
<path d="M506.455 320.412C506.455 320.412 506.595 322.945 507.951 321.849C508.767 321.172 509.446 320.127 509.909 318.838" fill="#FF4600"/>
<path d="M504.456 304.328C504.456 304.328 502.051 297.803 498.974 298.1H497.688C497.488 298.1 497.296 298.229 497.154 298.46C497.012 298.692 496.933 299.005 496.933 299.332C496.929 299.649 497.002 299.955 497.135 300.186C497.268 300.416 497.452 300.552 497.646 300.564H498.205C498.237 300.58 498.264 300.611 498.283 300.655C498.303 300.698 498.313 300.75 498.313 300.803C498.313 300.857 498.303 300.909 498.283 300.952C498.264 300.995 498.237 301.027 498.205 301.043L497.898 301.385C497.755 301.527 497.65 301.75 497.601 302.01C497.552 302.271 497.563 302.551 497.632 302.8C497.689 303.029 497.792 303.221 497.924 303.345C498.055 303.469 498.208 303.518 498.359 303.484H498.765C498.801 303.463 498.841 303.465 498.877 303.489C498.912 303.514 498.941 303.56 498.957 303.617C498.973 303.675 498.975 303.74 498.962 303.8C498.95 303.86 498.924 303.91 498.89 303.94C498.838 304.023 498.796 304.123 498.768 304.232C498.739 304.342 498.725 304.46 498.725 304.579C498.725 304.698 498.739 304.816 498.768 304.926C498.796 305.036 498.838 305.135 498.89 305.218C498.983 305.339 499.094 305.418 499.212 305.446L500.61 305.811" fill="#FF4600"/>
<path d="M474.182 64.1103V59.3192C474.185 44.9462 477.687 31.164 483.918 21.0029C490.148 10.8419 498.596 5.13379 507.406 5.13379C511.767 5.13379 516.085 6.53534 520.114 9.25841C524.144 11.9815 527.805 15.9727 530.889 21.0043C533.972 26.0359 536.419 32.0092 538.088 38.5833C539.757 45.1574 540.616 52.2034 540.616 59.3192V348.384" stroke="black" stroke-miterlimit="10" stroke-linecap="round"/>
<path d="M498.862 131.346C502.827 123.671 505.365 114.307 506.179 104.357C506.992 94.4077 506.046 84.2861 503.452 75.1841C500.858 66.0821 496.724 58.3786 491.538 52.9806C486.351 47.5826 480.327 44.7148 474.175 44.7148C468.023 44.7148 461.999 47.5826 456.812 52.9806C451.625 58.3786 447.491 66.0821 444.898 75.1841C442.304 84.2861 441.358 94.4077 442.171 104.357C442.984 114.307 445.523 123.671 449.488 131.346H498.862Z" fill="#FF4600"/>
<path d="M1.74805 641.189H643.252" stroke="black" stroke-miterlimit="10" stroke-linecap="round"/>
<path d="M333.204 470.056V624.969" stroke="black" stroke-miterlimit="10" stroke-linecap="round"/>
<path d="M334.532 599.302L407.678 627.318V641.258" stroke="black" stroke-miterlimit="10" stroke-linecap="round"/>
<path d="M312.342 608.679L263.694 627.318V641.258" stroke="black" stroke-miterlimit="10" stroke-linecap="round"/>
<path d="M390.619 429.49L390.884 425.612C391.478 416.968 389.943 408.295 386.619 401.497C383.294 394.699 378.451 390.333 373.154 389.359L348.502 384.796C343.835 383.937 339.132 385.771 335.209 389.98C331.285 394.19 328.389 400.508 327.023 407.839C323.877 424.745 318.536 445.529 310.132 456.434" stroke="#FF4600" stroke-miterlimit="10" stroke-linecap="round"/>
<path d="M174.565 641.258C174.565 641.258 183.29 623.006 181.948 606.192L176.033 603.773C174.242 603.042 172.611 601.51 171.324 599.35C170.037 597.19 169.145 594.487 168.748 591.545L168.203 587.461L165.686 585.339L161.673 592.183C160.539 594.095 159.164 595.58 157.642 596.534C156.12 597.488 154.489 597.887 152.863 597.705C147.144 597.089 137.957 595.241 131.021 589.674C120.171 580.958 117.947 593.438 117.947 593.438L174.565 641.258Z" fill="black"/>
<path d="M256.115 641.258C256.115 641.258 258.688 618.443 252.773 604.595L246.844 606.876C245.046 607.578 243.163 607.446 241.409 606.495C239.655 605.543 238.098 603.811 236.916 601.492L235.28 598.298H232.483L230.833 607.31C230.362 609.855 229.557 612.203 228.476 614.192C227.394 616.181 226.061 617.764 224.569 618.831C219.325 622.573 210.586 627.82 202.909 628.094C190.813 628.505 192.366 641.258 192.366 641.258H256.115Z" fill="black"/>
<path d="M245.726 493.007L256.073 403.116C256.74 397.295 258.616 392.026 261.384 388.195C264.152 384.364 267.644 382.205 271.273 382.081L298.861 380.895" stroke="black" stroke-miterlimit="10" stroke-linecap="round"/>
<path d="M364.96 183.614L357.968 177.637C357.696 177.41 357.454 177.098 357.256 176.717C357.059 176.337 356.909 175.896 356.817 175.42C356.724 174.945 356.691 174.444 356.718 173.947C356.745 173.45 356.833 172.967 356.976 172.526L365.365 146.289C365.666 145.352 366.182 144.647 366.8 144.326C367.418 144.006 368.088 144.096 368.665 144.578L371.924 147.224L366.694 161.986C364.512 168.605 363.895 176.301 364.96 183.614Z" fill="black" stroke="black" stroke-miterlimit="10" stroke-linecap="round"/>
<path d="M313.558 263.42C304.525 274.394 297.855 270.128 297.855 270.128C287.41 267.139 288.836 248.477 293.828 230.134C298.82 211.79 344.503 172.982 344.503 172.982L359.437 148.89" stroke="black" stroke-miterlimit="10" stroke-linecap="round"/>
<path d="M322.954 236.91L354.906 187.059L362.387 182.93" stroke="black" stroke-miterlimit="10" stroke-linecap="round"/>
<path d="M343.58 347.175H402.84C407.315 347.745 411.887 342.315 411.607 335.014C411.434 328.672 409.736 322.696 406.881 318.382C404.882 315.382 402.471 313.209 399.851 312.046C397.23 310.882 394.476 310.763 391.821 311.697L391.024 311.971L348.977 328.261C347.369 329.219 344.488 326.961 342.824 325.98L321.095 313.819C320.633 313.608 320.145 313.605 319.682 313.81C319.219 314.014 318.799 314.42 318.466 314.983C315.433 320.117 312.997 326.108 311.279 332.664C311.073 333.562 311.088 334.553 311.32 335.433C311.552 336.313 311.983 337.013 312.523 337.387C312.873 337.632 313.255 337.729 313.634 337.669C314.012 337.609 314.376 337.394 314.69 337.045L319.445 331.797C319.561 331.665 319.695 331.577 319.835 331.543C319.976 331.508 320.119 331.527 320.255 331.597C320.39 331.668 320.513 331.789 320.616 331.95C320.718 332.111 320.795 332.309 320.843 332.527L321.542 335.676C322.846 339.449 324.486 342.886 326.408 345.874C326.949 346.736 327.594 347.406 328.301 347.842C329.009 348.278 329.764 348.47 330.519 348.407L343.58 347.175Z" fill="#F9F3EE"/>
<path d="M391.011 270.95L389.081 314.184" stroke="#F9F3EE" stroke-linecap="round" stroke-linejoin="round"/>
<path d="M322.045 330.428L318.004 343.044C317.91 343.349 317.856 343.682 317.846 344.022C317.835 344.363 317.869 344.703 317.944 345.021C318.019 345.339 318.134 345.628 318.282 345.869C318.429 346.11 318.606 346.298 318.801 346.421L319.668 346.946C319.905 347.073 320.157 347.1 320.402 347.024C320.646 346.948 320.875 346.772 321.066 346.512L324.534 340.854" fill="#F9F3EE"/>
<path d="M320.843 332.413L324.115 326.983H331.68" stroke="black" stroke-miterlimit="10" stroke-linecap="round"/>
<path d="M365.477 89.6402H340.741V121.193L329.499 89.6402H287.046V5.13379H365.477V89.6402Z" stroke="#FF4600" stroke-linecap="round" stroke-linejoin="round"/>
<path d="M326.254 32.8311L323.639 28.7701C322.862 27.5635 321.938 26.6362 320.928 26.0479C319.917 25.4596 318.843 25.2234 317.773 25.3545C316.703 25.4857 315.662 25.9812 314.717 26.8092C313.771 27.6372 312.943 28.7793 312.285 30.1618C311.156 32.5374 310.587 35.4955 310.682 38.4976C310.777 41.4998 311.529 44.3466 312.802 46.52L326.24 69.449" stroke="black" stroke-linecap="round" stroke-linejoin="round"/>
<path d="M326.283 69.4483L339.721 46.6334C341.163 44.2887 341.976 41.105 341.98 37.7826C341.984 34.4603 341.179 31.2714 339.742 28.9176C338.305 26.5638 336.353 25.2379 334.317 25.2315C332.281 25.2251 330.326 26.5387 328.884 28.8834L326.255 32.9445" stroke="black" stroke-linecap="round" stroke-linejoin="round"/>
</svg>
