<svg width="740" height="534" viewBox="0 0 740 534" fill="none" xmlns="http://www.w3.org/2000/svg">
<path d="M429.47 489.02V403.69L426.06 399.29V335.87L445.51 339.39V489.02H429.47Z" fill="#143622"/>
<path d="M323.27 479.52V135.96L385.48 152.27" stroke="black" stroke-miterlimit="10" stroke-linecap="round"/>
<path d="M409.01 265.74V251.88L405.88 248.97V157.49L450.61 170.46L457.1 168.45L463.81 169.12" stroke="black" stroke-miterlimit="10" stroke-linecap="round"/>
<path d="M450.61 193.95V170.46" stroke="black" stroke-miterlimit="10" stroke-linecap="round"/>
<path d="M450.61 196.56V199.99" stroke="black" stroke-miterlimit="10" stroke-linecap="round"/>
<path d="M469.97 257.8V234.41L466.33 230.26V178.81L463.81 176.62V167.39L467.74 163.48V152.49L459.5 148.91L448.16 151.78V155.6" stroke="black" stroke-miterlimit="10" stroke-linecap="round"/>
<path d="M459.06 153.21V160.73L450.07 163.6" stroke="black" stroke-miterlimit="10" stroke-linecap="round"/>
<path d="M450.61 156.15L396.87 140.26V105.06L418.56 111.93V122.66L396.87 117.05" stroke="black" stroke-miterlimit="10" stroke-linecap="round"/>
<path d="M384.82 126.75L396.87 124.32L412.16 128.63V144.78" stroke="black" stroke-miterlimit="10" stroke-linecap="round"/>
<path d="M323.27 125.11V130.05" stroke="black" stroke-miterlimit="10" stroke-linecap="round"/>
<path d="M381.41 135.96L327.04 120.45V105.06L341.72 108.87" stroke="black" stroke-miterlimit="10" stroke-linecap="round"/>
<path d="M323.27 119.42L307.2 115.69V111.97L327.04 105.06" stroke="black" stroke-miterlimit="10" stroke-linecap="round"/>
<path d="M311.33 131.18L293.55 144.78L286.11 131.82L307.2 115.69" stroke="black" stroke-miterlimit="10" stroke-linecap="round"/>
<path d="M269.08 483.4V489.02" stroke="black" stroke-miterlimit="10" stroke-linecap="round"/>
<path d="M281.3 387.33L312.32 380.79" stroke="black" stroke-miterlimit="10" stroke-linecap="round"/>
<path d="M285.93 279.19L316.31 266.34" stroke="black" stroke-miterlimit="10" stroke-linecap="round"/>
<path d="M323.27 194.59L297.01 203.75" stroke="black" stroke-miterlimit="10" stroke-linecap="round"/>
<path d="M348.08 301.4V391.5C348.079 392.334 348.319 393.15 348.77 393.85L352.67 399.93C353.12 400.628 353.36 401.44 353.36 402.27V497.19" stroke="black" stroke-miterlimit="10" stroke-linecap="round"/>
<path d="M370.53 329.04V459.56" stroke="black" stroke-miterlimit="10" stroke-linecap="round"/>
<path d="M445.51 469.33V339.39" stroke="black" stroke-miterlimit="10" stroke-linecap="round"/>
<path d="M353.36 489.02H456.25" stroke="black" stroke-miterlimit="10" stroke-linecap="round"/>
<path d="M282.26 330.53L24.21 423.88" stroke="#143622" stroke-linecap="round" stroke-linejoin="round"/>
<path d="M81.7402 430.01L280.55 377.37" stroke="#143622" stroke-linecap="round" stroke-linejoin="round"/>
<path d="M77.6999 431.34L72.3799 432.72" stroke="#FF4600" stroke-linecap="round" stroke-linejoin="round"/>
<path d="M105.93 380.79C105.93 380.79 253.47 226.63 293.55 144.79" stroke="#143622" stroke-linecap="round" stroke-linejoin="round"/>
<path d="M224.51 307.26C247.31 285.43 270.79 261.01 286.95 239.26" stroke="#143622" stroke-linecap="round" stroke-linejoin="round"/>
<path d="M217 314.37L220.07 311.47" stroke="#143622" stroke-linecap="round" stroke-linejoin="round"/>
<path d="M153.24 370.59C153.24 370.59 181.24 347.72 213.44 317.72" stroke="#143622" stroke-linecap="round" stroke-linejoin="round"/>
<path d="M287 252C287 252 215.33 331.82 172.7 362.55" stroke="#143622" stroke-linecap="round" stroke-linejoin="round"/>
<path d="M335.2 115.69C335.2 115.69 635.74 50.7 736.82 12" stroke="#FF4600" stroke-linecap="round" stroke-linejoin="round"/>
<path d="M463.8 156.15C463.8 156.15 679.71 130.76 736.8 110.36" stroke="#FF4600" stroke-linecap="round" stroke-linejoin="round"/>
<path d="M736.82 83.9001C736.82 83.9001 457.58 129.61 405.88 133.26C405.88 133.26 687.14 88.5101 736.82 63.8301" stroke="#FF4600" stroke-linecap="round" stroke-linejoin="round"/>
<path d="M385.48 187.09V273.27" stroke="black" stroke-miterlimit="10" stroke-linecap="round"/>
<path d="M385.48 183.42V177.98" stroke="black" stroke-miterlimit="10" stroke-linecap="round"/>
<path d="M736.82 265.74L474.06 327.54L348.08 316.51L736.82 198.28" stroke="#143622" stroke-linecap="round" stroke-linejoin="round"/>
<path d="M382.82 330.69V400.59L387.33 404.36V489.02H401.13V333.54L382.82 330.69Z" fill="#143622"/>
<path d="M359.63 284.16L379 276.34V203.75C379 203.75 370.95 176.28 355.77 168.92C355.77 168.92 348.18 171.78 341.04 180.7C341.04 180.7 356.46 186.17 360.04 202.04V229L357.53 230.16C357.49 230.181 357.456 230.212 357.433 230.251C357.41 230.29 357.399 230.335 357.4 230.38L357.62 235.13C357.626 235.18 357.643 235.228 357.67 235.27L360.04 238.2L359.63 284.16Z" fill="#143622"/>
<path d="M357.9 228.59H365.71" stroke="#F3EAE1" stroke-linecap="round" stroke-linejoin="round"/>
<path d="M341 290V275.22C341.003 273.956 340.611 272.722 339.88 271.69L338.62 269.92C337.884 268.89 337.488 267.656 337.49 266.39V209.7C337.493 208.798 337.247 207.912 336.78 207.14L335.86 205.58C335.397 204.806 335.152 203.922 335.15 203.02V193.12C335.149 190.999 335.671 188.911 336.67 187.04C341.001 179.177 347.659 172.848 355.73 168.92C355.73 168.92 369.48 174.31 378.01 200.65C378.642 202.587 378.963 204.612 378.96 206.65V212.33" stroke="black" stroke-miterlimit="10" stroke-linecap="round"/>
<path d="M410.93 200C410.93 200 425.41 211.69 426.23 221.25V245.78H424V250.29L426.26 252.21V260.08L441.41 254.64L441 208.85C441 208.85 435.81 191.61 425.35 186.51C425.39 186.51 417.47 189.11 410.93 200Z" fill="#143622"/>
<path d="M405.88 209.34C405.88 209.34 413.35 190.93 425.39 186.51C425.39 186.51 436.2 192.24 440.82 208.07C440.968 208.587 441.042 209.122 441.04 209.66V228.59" stroke="black" stroke-miterlimit="10" stroke-linecap="round"/>
<path d="M441.2 230.18V234.65" stroke="black" stroke-miterlimit="10" stroke-linecap="round"/>
<path d="M423.46 245.77H431.28" stroke="#F3EAE1" stroke-linecap="round" stroke-linejoin="round"/>
<path d="M172.11 489.02H189.29" stroke="#143622" stroke-linecap="round" stroke-linejoin="round"/>
<path d="M194.81 516.39H222.32" stroke="#143622" stroke-linecap="round" stroke-linejoin="round"/>
<path d="M452.88 529.04H500.13" stroke="#143622" stroke-linecap="round" stroke-linejoin="round"/>
<path d="M427.4 529.04H443.11" stroke="#143622" stroke-linecap="round" stroke-linejoin="round"/>
<path d="M520.26 510.38H544.71" stroke="#143622" stroke-linecap="round" stroke-linejoin="round"/>
<path d="M553.01 510.38H619.51" stroke="#143622" stroke-linecap="round" stroke-linejoin="round"/>
<path d="M632.42 510.38H640.06" stroke="#143622" stroke-linecap="round" stroke-linejoin="round"/>
<path d="M411.22 529.04H420.52" stroke="#143622" stroke-linecap="round" stroke-linejoin="round"/>
<path d="M196.26 489.02H246.07" stroke="#143622" stroke-linecap="round" stroke-linejoin="round"/>
<path d="M98.0596 516.39H185.25" stroke="#143622" stroke-linecap="round" stroke-linejoin="round"/>
<path d="M474.06 374.13H503.24V399.29H511.42V385.47L529.93 392.57V404.36H545.22V363.08H576.22V417.55H581.65V431.86H583.48V390.87H617.39V450.39H632.86V408.3H659.77V469.33H479.26V414.81L475.04 408.04L474.06 374.13Z" fill="#645B43" fill-opacity="0.76"/>
<path d="M474.06 329V405.22C474.063 406.234 474.417 407.216 475.06 408L478.29 412C478.934 412.787 479.287 413.773 479.29 414.79V494.19H515.15" stroke="black" stroke-miterlimit="10" stroke-linecap="round"/>
<path d="M479.26 469.33H667.88" stroke="#143622" stroke-linecap="round" stroke-linejoin="round"/>
<path d="M274.2 412.75L258.2 418.64V430H243.71L237.82 422.27L193.76 430V443.83L160 450V448L172.74 445.44V437.44L161.96 435.44L151.4 436.8L145.82 431.29L128.46 435.14V469.23H269.08V446.54C269.1 445.298 269.483 444.088 270.18 443.06C271.32 441.42 273.64 437.91 273.64 437.91C274.111 436.514 274.301 435.039 274.2 433.57V412.75Z" fill="#645B43" fill-opacity="0.76"/>
<path d="M269.08 479.52V446.52C269.077 445.274 269.461 444.058 270.18 443.04L273.11 438.82C273.82 437.799 274.2 436.584 274.2 435.34V389C274.204 387.111 274.802 385.271 275.91 383.74L280.55 377.38C281.658 375.85 282.256 374.01 282.26 372.12V283.12C282.256 282.731 282.345 282.347 282.519 282C282.693 281.652 282.947 281.35 283.26 281.12L285.91 279.21C286.224 278.98 286.478 278.679 286.652 278.331C286.825 277.983 286.914 277.599 286.91 277.21V211C286.912 210.342 287.077 209.695 287.389 209.116C287.701 208.537 288.152 208.044 288.7 207.68L291.7 205.68C292.249 205.317 292.699 204.824 293.011 204.245C293.323 203.665 293.488 203.018 293.49 202.36V144.78" stroke="black" stroke-miterlimit="10" stroke-linecap="round"/>
<path d="M13.8203 469.33H269.08" stroke="#143622" stroke-linecap="round" stroke-linejoin="round"/>
</svg>
